<?xml version="1.0" encoding="utf-8"?>
<svg width="300" height="100" viewBox="0 0 300 100" fill="none" xmlns="http://www.w3.org/2000/svg">
  <g filter="url(#filter0_b)">
    <rect width="300" height="100" rx="20" fill="white" fill-opacity="0.8"/>
  </g>
  <rect x="28" y="25" width="50" height="50" rx="8" fill="#23BDEE"/>
  <g clip-path="url(#clip0)">
    <path d="M46.125 36.25C45.5826 36.25 45.1429 36.6897 45.1429 37.2322V39.1964H47.1071V37.2322C47.1071 36.6897 46.6674 36.25 46.125 36.25Z" fill="white"/>
    <path d="M59.875 36.25C59.3325 36.25 58.8928 36.6897 58.8928 37.2322V39.1964H60.8571V37.2322C60.8571 36.6897 60.4174 36.25 59.875 36.25Z" fill="white"/>
    <path d="M63.8036 39.1964H60.8571V43.125C60.8571 43.6675 60.4174 44.1072 59.875 44.1072C59.3325 44.1072 58.8928 43.6675 58.8928 43.125V39.1964H47.1071V43.125C47.1071 43.6675 46.6674 44.1072 46.125 44.1072C45.5825 44.1072 45.1428 43.6675 45.1428 43.125V39.1964H42.1964C40.5692 39.1964 39.25 40.5156 39.25 42.1429V60.8036C39.25 62.4309 40.5692 63.75 42.1964 63.75H63.8036C65.4308 63.75 66.75 62.4309 66.75 60.8036V42.1429C66.75 40.5156 65.4308 39.1964 63.8036 39.1964ZM64.7857 60.8036C64.7857 61.346 64.346 61.7857 63.8035 61.7857H42.1964C41.654 61.7857 41.2143 61.346 41.2143 60.8036V48.0357H64.7857V60.8036Z" fill="white"/>
    <path d="M47.1071 50H45.1428C44.6004 50 44.1607 50.4397 44.1607 50.9822C44.1607 51.5246 44.6004 51.9643 45.1428 51.9643H47.1071C47.6495 51.9643 48.0893 51.5246 48.0893 50.9822C48.0893 50.4397 47.6495 50 47.1071 50Z" fill="white"/>
    <path d="M53.9821 50H52.0179C51.4754 50 51.0357 50.4397 51.0357 50.9822C51.0357 51.5246 51.4754 51.9643 52.0179 51.9643H53.9821C54.5246 51.9643 54.9643 51.5246 54.9643 50.9822C54.9643 50.4397 54.5246 50 53.9821 50Z" fill="white"/>
    <path d="M60.8572 50H58.8929C58.3505 50 57.9107 50.4397 57.9107 50.9822C57.9107 51.5246 58.3505 51.9643 58.8929 51.9643H60.8572C61.3996 51.9643 61.8393 51.5246 61.8393 50.9822C61.8393 50.4397 61.3995 50 60.8572 50Z" fill="white"/>
    <path d="M47.1071 53.9286H45.1428C44.6004 53.9286 44.1607 54.3683 44.1607 54.9107C44.1607 55.4532 44.6004 55.8929 45.1428 55.8929H47.1071C47.6495 55.8929 48.0893 55.4532 48.0893 54.9107C48.0893 54.3683 47.6495 53.9286 47.1071 53.9286Z" fill="white"/>
    <path d="M53.9821 53.9286H52.0179C51.4754 53.9286 51.0357 54.3683 51.0357 54.9107C51.0357 55.4532 51.4754 55.8929 52.0179 55.8929H53.9821C54.5246 55.8929 54.9643 55.4532 54.9643 54.9107C54.9643 54.3683 54.5246 53.9286 53.9821 53.9286Z" fill="white"/>
    <path d="M60.8572 53.9286H58.8929C58.3505 53.9286 57.9107 54.3683 57.9107 54.9107C57.9107 55.4532 58.3505 55.8929 58.8929 55.8929H60.8572C61.3996 55.8929 61.8393 55.4532 61.8393 54.9107C61.8393 54.3683 61.3995 53.9286 60.8572 53.9286Z" fill="white"/>
    <path d="M47.1071 57.8571H45.1428C44.6004 57.8571 44.1607 58.2968 44.1607 58.8393C44.1607 59.3817 44.6004 59.8214 45.1428 59.8214H47.1071C47.6495 59.8214 48.0893 59.3817 48.0893 58.8392C48.0893 58.2968 47.6495 57.8571 47.1071 57.8571Z" fill="white"/>
    <path d="M53.9821 57.8571H52.0179C51.4754 57.8571 51.0357 58.2968 51.0357 58.8393C51.0357 59.3817 51.4754 59.8214 52.0179 59.8214H53.9821C54.5246 59.8214 54.9643 59.3817 54.9643 58.8393C54.9643 58.2968 54.5246 57.8571 53.9821 57.8571Z" fill="white"/>
    <path d="M60.8572 57.8571H58.8929C58.3505 57.8571 57.9107 58.2968 57.9107 58.8393C57.9107 59.3817 58.3505 59.8214 58.8929 59.8214H60.8572C61.3996 59.8214 61.8393 59.3817 61.8393 58.8393C61.8393 58.2968 61.3995 57.8571 60.8572 57.8571Z" fill="white"/>
  </g>
  <defs>
    <filter id="filter0_b" x="-20" y="-20" width="340" height="140" filterUnits="userSpaceOnUse" color-interpolation-filters="sRGB">
      <feFlood flood-opacity="0" result="BackgroundImageFix"/>
      <feGaussianBlur in="BackgroundImage" stdDeviation="10"/>
      <feComposite in2="SourceAlpha" operator="in" result="effect1_backgroundBlur"/>
      <feBlend mode="normal" in="SourceGraphic" in2="effect1_backgroundBlur" result="shape"/>
    </filter>
    <clipPath id="clip0">
      <rect width="27.5" height="27.5" fill="white" transform="translate(39.25 36.25)"/>
    </clipPath>
  </defs>
  <path d="M 111.465 25.502 L 117.851 25.502 Q 119.933 25.502 121.406 26.136 Q 122.879 26.771 123.659 28.009 Q 124.44 29.247 124.44 31.062 Q 124.44 32.395 123.932 33.449 Q 123.424 34.503 122.479 35.226 Q 121.533 35.95 120.238 36.318 L 119.375 36.712 L 113.548 36.712 L 113.522 34.388 L 117.902 34.388 Q 119.121 34.388 119.921 33.963 Q 120.72 33.538 121.133 32.801 Q 121.546 32.065 121.546 31.151 Q 121.546 30.148 121.152 29.399 Q 120.758 28.65 119.94 28.244 Q 119.121 27.838 117.851 27.838 L 114.373 27.838 L 114.373 43.986 L 111.465 43.986 Z M 122.104 43.986 L 117.712 35.658 L 120.758 35.632 L 125.214 43.821 L 125.214 43.986 Z M 126.773 37.27 L 126.773 36.978 Q 126.773 35.493 127.205 34.217 Q 127.637 32.941 128.456 31.995 Q 129.274 31.049 130.449 30.523 Q 131.623 29.996 133.096 29.996 Q 134.581 29.996 135.762 30.523 Q 136.942 31.049 137.768 31.995 Q 138.593 32.941 139.024 34.217 Q 139.456 35.493 139.456 36.978 L 139.456 37.27 Q 139.456 38.756 139.024 40.025 Q 138.593 41.295 137.768 42.24 Q 136.942 43.186 135.774 43.713 Q 134.606 44.24 133.121 44.24 Q 131.636 44.24 130.461 43.713 Q 129.287 43.186 128.462 42.24 Q 127.637 41.295 127.205 40.025 Q 126.773 38.756 126.773 37.27 Z M 129.566 36.978 L 129.566 37.27 Q 129.566 38.235 129.776 39.092 Q 129.985 39.949 130.423 40.603 Q 130.861 41.257 131.534 41.625 Q 132.207 41.993 133.121 41.993 Q 134.022 41.993 134.689 41.625 Q 135.355 41.257 135.787 40.603 Q 136.219 39.949 136.435 39.092 Q 136.65 38.235 136.65 37.27 L 136.65 36.978 Q 136.65 36.026 136.435 35.175 Q 136.219 34.325 135.781 33.658 Q 135.343 32.992 134.676 32.617 Q 134.01 32.243 133.096 32.243 Q 132.194 32.243 131.528 32.617 Q 130.861 32.992 130.423 33.658 Q 129.985 34.325 129.776 35.175 Q 129.566 36.026 129.566 36.978 Z M 148.241 30.25 L 148.241 32.319 L 140.624 32.319 L 140.624 30.25 Z M 142.96 26.898 L 145.753 26.898 L 145.753 40.342 Q 145.753 41.003 145.943 41.345 Q 146.134 41.688 146.47 41.802 Q 146.806 41.917 147.238 41.917 Q 147.543 41.917 147.847 41.866 Q 148.152 41.815 148.33 41.777 L 148.343 43.961 Q 148 44.075 147.517 44.157 Q 147.035 44.24 146.387 44.24 Q 145.41 44.24 144.629 43.878 Q 143.848 43.516 143.404 42.678 Q 142.96 41.84 142.96 40.444 Z M 153.764 30.25 L 153.764 43.986 L 150.958 43.986 L 150.958 30.25 Z M 150.768 26.632 Q 150.768 25.984 151.187 25.546 Q 151.606 25.108 152.38 25.108 Q 153.129 25.108 153.561 25.546 Q 153.993 25.984 153.993 26.632 Q 153.993 27.254 153.561 27.685 Q 153.129 28.117 152.38 28.117 Q 151.606 28.117 151.187 27.685 Q 150.768 27.254 150.768 26.632 Z M 160.046 33.182 L 160.046 43.986 L 157.253 43.986 L 157.253 30.25 L 159.881 30.25 Z M 159.5 36.61 L 158.51 36.585 Q 158.523 35.137 158.923 33.931 Q 159.323 32.725 160.053 31.843 Q 160.783 30.961 161.792 30.478 Q 162.801 29.996 164.033 29.996 Q 165.036 29.996 165.842 30.269 Q 166.648 30.542 167.226 31.145 Q 167.803 31.748 168.108 32.713 Q 168.413 33.677 168.413 35.061 L 168.413 43.986 L 165.62 43.986 L 165.62 35.049 Q 165.62 34.02 165.321 33.417 Q 165.023 32.814 164.452 32.548 Q 163.88 32.281 163.055 32.281 Q 162.23 32.281 161.57 32.624 Q 160.91 32.966 160.453 33.569 Q 159.996 34.173 159.748 34.953 Q 159.5 35.734 159.5 36.61 Z M 179.585 41.383 L 179.585 34.63 Q 179.585 33.881 179.3 33.316 Q 179.014 32.751 178.43 32.446 Q 177.846 32.141 176.983 32.141 Q 176.183 32.141 175.593 32.414 Q 175.002 32.687 174.672 33.144 Q 174.342 33.601 174.342 34.16 L 171.549 34.16 Q 171.549 33.373 171.943 32.624 Q 172.336 31.875 173.066 31.284 Q 173.796 30.694 174.831 30.345 Q 175.866 29.996 177.135 29.996 Q 178.671 29.996 179.852 30.51 Q 181.033 31.024 181.705 32.065 Q 182.378 33.106 182.378 34.655 L 182.378 40.888 Q 182.378 41.714 182.505 42.469 Q 182.632 43.224 182.886 43.783 L 182.886 43.986 L 180.017 43.986 Q 179.814 43.529 179.7 42.793 Q 179.585 42.056 179.585 41.383 Z M 180.017 35.645 L 180.042 37.435 L 177.783 37.435 Q 176.868 37.435 176.17 37.594 Q 175.472 37.753 175.002 38.064 Q 174.533 38.375 174.291 38.825 Q 174.05 39.276 174.05 39.86 Q 174.05 40.444 174.317 40.92 Q 174.583 41.396 175.11 41.675 Q 175.637 41.955 176.399 41.955 Q 177.389 41.955 178.144 41.542 Q 178.9 41.13 179.338 40.527 Q 179.776 39.924 179.801 39.365 L 180.791 40.647 Q 180.664 41.168 180.284 41.79 Q 179.903 42.412 179.293 42.964 Q 178.684 43.516 177.833 43.878 Q 176.983 44.24 175.904 44.24 Q 174.533 44.24 173.485 43.7 Q 172.438 43.161 171.847 42.234 Q 171.257 41.307 171.257 40.152 Q 171.257 39.06 171.676 38.216 Q 172.095 37.372 172.901 36.8 Q 173.707 36.229 174.869 35.937 Q 176.031 35.645 177.491 35.645 Z M 195.452 25.502 L 195.452 43.986 L 192.545 43.986 L 192.545 25.502 Z M 203.07 33.677 L 203.07 36.001 L 194.754 36.001 L 194.754 33.677 Z M 204.2 25.502 L 204.2 27.838 L 194.754 27.838 L 194.754 25.502 Z M 213.998 41.383 L 213.998 34.63 Q 213.998 33.881 213.713 33.316 Q 213.427 32.751 212.843 32.446 Q 212.259 32.141 211.396 32.141 Q 210.596 32.141 210.006 32.414 Q 209.415 32.687 209.085 33.144 Q 208.755 33.601 208.755 34.16 L 205.962 34.16 Q 205.962 33.373 206.356 32.624 Q 206.749 31.875 207.479 31.284 Q 208.209 30.694 209.244 30.345 Q 210.279 29.996 211.548 29.996 Q 213.084 29.996 214.265 30.51 Q 215.446 31.024 216.118 32.065 Q 216.791 33.106 216.791 34.655 L 216.791 40.888 Q 216.791 41.714 216.918 42.469 Q 217.045 43.224 217.299 43.783 L 217.299 43.986 L 214.43 43.986 Q 214.227 43.529 214.113 42.793 Q 213.998 42.056 213.998 41.383 Z M 214.43 35.645 L 214.455 37.435 L 212.196 37.435 Q 211.282 37.435 210.583 37.594 Q 209.885 37.753 209.415 38.064 Q 208.946 38.375 208.704 38.825 Q 208.463 39.276 208.463 39.86 Q 208.463 40.444 208.73 40.92 Q 208.996 41.396 209.523 41.675 Q 210.05 41.955 210.812 41.955 Q 211.802 41.955 212.557 41.542 Q 213.313 41.13 213.751 40.527 Q 214.189 39.924 214.214 39.365 L 215.204 40.647 Q 215.077 41.168 214.697 41.79 Q 214.316 42.412 213.706 42.964 Q 213.097 43.516 212.246 43.878 Q 211.396 44.24 210.317 44.24 Q 208.946 44.24 207.898 43.7 Q 206.851 43.161 206.261 42.234 Q 205.67 41.307 205.67 40.152 Q 205.67 39.06 206.089 38.216 Q 206.508 37.372 207.314 36.8 Q 208.12 36.229 209.282 35.937 Q 210.444 35.645 211.904 35.645 Z M 210.266 28.282 L 212.741 24.486 L 215.966 24.486 L 212.526 28.282 Z M 225.753 41.993 Q 226.54 41.993 227.182 41.682 Q 227.823 41.371 228.229 40.812 Q 228.635 40.254 228.686 39.517 L 231.327 39.517 Q 231.276 40.812 230.52 41.885 Q 229.765 42.958 228.521 43.599 Q 227.277 44.24 225.779 44.24 Q 224.217 44.24 223.056 43.7 Q 221.894 43.161 221.126 42.209 Q 220.358 41.257 219.977 40.012 Q 219.596 38.768 219.596 37.359 L 219.596 36.877 Q 219.596 35.467 219.977 34.223 Q 220.358 32.979 221.126 32.027 Q 221.894 31.075 223.049 30.535 Q 224.204 29.996 225.766 29.996 Q 227.404 29.996 228.635 30.65 Q 229.867 31.303 230.571 32.452 Q 231.276 33.601 231.327 35.099 L 228.686 35.099 Q 228.635 34.299 228.273 33.652 Q 227.911 33.005 227.27 32.624 Q 226.629 32.243 225.753 32.243 Q 224.763 32.243 224.109 32.636 Q 223.455 33.03 223.075 33.703 Q 222.694 34.376 222.541 35.194 Q 222.389 36.013 222.389 36.877 L 222.389 37.359 Q 222.389 38.222 222.541 39.054 Q 222.694 39.885 223.068 40.546 Q 223.443 41.206 224.103 41.599 Q 224.763 41.993 225.753 41.993 Z M 236.772 30.25 L 236.772 43.986 L 233.966 43.986 L 233.966 30.25 Z M 233.776 26.632 Q 233.776 25.984 234.194 25.546 Q 234.613 25.108 235.388 25.108 Q 236.137 25.108 236.568 25.546 Q 237 25.984 237 26.632 Q 237 27.254 236.568 27.685 Q 236.137 28.117 235.388 28.117 Q 234.613 28.117 234.194 27.685 Q 233.776 27.254 233.776 26.632 Z M 243.286 24.486 L 243.286 43.986 L 240.48 43.986 L 240.48 24.486 Z" style="fill: rgb(89, 89, 89); text-wrap-mode: nowrap;"/>
  <path d="M 110.365 69.568 Q 110.365 71.502 111.781 72.625 Q 113.197 73.748 115.541 73.748 Q 117.884 73.748 119.252 72.625 Q 120.619 71.502 120.619 69.744 Q 120.619 67.986 119.584 67.019 Q 118.549 66.053 116.263 65.408 Q 113.978 64.764 113.246 64.226 Q 112.513 63.689 112.513 62.762 Q 112.513 61.736 113.226 61.141 Q 113.939 60.545 115.443 60.545 Q 116.947 60.545 117.709 61.238 Q 118.47 61.932 118.47 63.064 L 118.47 63.182 L 120.345 63.182 L 120.345 63.064 Q 120.345 61.268 119.017 60.105 Q 117.689 58.943 115.443 58.943 Q 113.197 58.943 111.927 60.047 Q 110.658 61.15 110.658 62.81 Q 110.658 64.471 111.625 65.374 Q 112.591 66.277 114.916 66.951 Q 117.152 67.596 117.958 68.182 Q 118.763 68.768 118.763 69.744 Q 118.763 70.818 117.933 71.482 Q 117.103 72.146 115.541 72.146 Q 113.978 72.146 113.109 71.502 Q 112.24 70.857 112.24 69.568 L 112.24 69.451 L 110.365 69.451 Z M 121.955 68.475 Q 121.955 70.799 123.23 72.273 Q 124.504 73.748 126.897 73.748 Q 128.362 73.748 129.382 73.113 Q 130.403 72.478 130.891 71.746 L 129.719 70.818 Q 129.28 71.404 128.576 71.834 Q 127.873 72.264 126.897 72.264 Q 125.315 72.264 124.563 71.165 Q 123.811 70.066 123.811 68.475 L 123.811 68.162 Q 123.811 66.57 124.524 65.472 Q 125.237 64.373 126.682 64.373 Q 127.873 64.373 128.508 65.154 Q 129.143 65.935 129.143 67.049 L 129.143 67.283 L 123.069 67.283 L 123.069 68.728 L 130.969 68.728 L 130.969 67.986 Q 130.969 65.643 129.836 64.266 Q 128.703 62.889 126.604 62.889 Q 124.504 62.889 123.23 64.363 Q 121.955 65.838 121.955 68.162 Z M 132.881 73.455 L 134.697 73.455 L 134.697 66.189 Q 135.068 65.447 135.698 64.978 Q 136.328 64.51 137.168 64.51 Q 138.135 64.51 138.662 65.042 Q 139.189 65.574 139.189 66.805 L 139.189 73.455 L 141.006 73.455 L 141.006 66.189 Q 141.377 65.447 142.007 64.978 Q 142.637 64.51 143.476 64.51 Q 144.443 64.51 144.971 65.042 Q 145.498 65.574 145.498 66.805 L 145.498 73.455 L 147.314 73.455 L 147.314 66.824 Q 147.314 64.754 146.416 63.87 Q 145.517 62.986 143.916 62.986 Q 142.9 62.986 142.119 63.396 Q 141.338 63.807 140.693 64.725 L 140.635 64.725 Q 140.244 63.807 139.492 63.396 Q 138.74 62.986 137.705 62.986 Q 136.758 62.986 135.981 63.396 Q 135.205 63.807 134.658 64.5 L 134.599 64.5 L 134.521 63.182 L 132.881 63.182 Z M 153.708 70.428 L 153.708 70.476 Q 153.708 71.961 154.783 72.854 Q 155.857 73.748 157.908 73.748 Q 159.958 73.748 160.984 72.869 Q 162.009 71.99 162.009 70.623 Q 162.009 69.256 161.106 68.523 Q 160.202 67.791 158.542 67.4 Q 156.882 67.01 156.316 66.668 Q 155.749 66.326 155.749 65.74 Q 155.749 65.154 156.242 64.764 Q 156.736 64.373 157.81 64.373 Q 158.884 64.373 159.397 64.793 Q 159.909 65.213 159.909 65.945 L 159.909 66.033 L 161.716 66.033 L 161.716 65.984 Q 161.716 64.559 160.642 63.724 Q 159.568 62.889 157.81 62.889 Q 156.052 62.889 155.002 63.728 Q 153.952 64.568 153.952 65.838 Q 153.952 67.107 154.929 67.815 Q 155.906 68.523 157.566 68.914 Q 159.226 69.305 159.724 69.671 Q 160.222 70.037 160.222 70.721 Q 160.222 71.404 159.602 71.834 Q 158.982 72.264 157.908 72.264 Q 156.833 72.264 156.179 71.814 Q 155.525 71.365 155.525 70.476 L 155.525 70.428 Z M 163.445 70.428 Q 163.445 71.99 164.471 72.82 Q 165.496 73.65 166.961 73.65 Q 168.23 73.65 169.036 73.162 Q 169.842 72.674 170.203 72.039 Q 170.232 72.43 170.345 72.82 Q 170.457 73.211 170.594 73.455 L 172.352 73.455 L 172.352 73.299 Q 172.176 72.869 172.078 72.308 Q 171.98 71.746 171.98 71.111 L 171.98 66.424 Q 171.98 64.666 170.96 63.777 Q 169.939 62.889 168.084 62.889 Q 166.228 62.889 165.14 63.802 Q 164.051 64.715 164.051 65.935 L 164.051 65.984 L 165.857 65.984 L 165.857 65.935 Q 165.857 65.301 166.36 64.817 Q 166.863 64.334 168.035 64.334 Q 169.207 64.334 169.686 64.915 Q 170.164 65.496 170.164 66.424 L 170.164 67.127 L 167.84 67.127 Q 165.926 67.127 164.686 67.996 Q 163.445 68.865 163.445 70.428 Z M 165.262 70.33 Q 165.262 69.451 165.965 68.934 Q 166.668 68.416 168.035 68.416 L 170.164 68.416 L 170.164 69.891 Q 170.164 70.721 169.295 71.463 Q 168.426 72.205 167.352 72.205 Q 166.277 72.205 165.769 71.707 Q 165.262 71.209 165.262 70.33 Z M 174.604 73.455 L 176.42 73.455 L 176.42 63.182 L 174.604 63.182 Z M 174.379 60.076 Q 174.379 60.535 174.672 60.848 Q 174.965 61.16 175.512 61.16 Q 176.059 61.16 176.352 60.848 Q 176.645 60.535 176.645 60.076 Q 176.645 59.617 176.352 59.305 Q 176.059 58.992 175.512 58.992 Q 174.965 58.992 174.672 59.305 Q 174.379 59.617 174.379 60.076 Z M 179.215 73.455 L 181.032 73.455 L 181.032 66.228 Q 181.324 65.545 181.94 65.086 Q 182.555 64.627 183.434 64.627 Q 183.688 64.627 183.903 64.646 Q 184.117 64.666 184.313 64.705 L 184.313 63.025 Q 184.215 62.986 183.981 62.937 Q 183.746 62.889 183.532 62.889 Q 182.653 62.889 182.018 63.372 Q 181.383 63.855 180.992 64.5 L 180.934 64.5 L 180.856 63.182 L 179.215 63.182 Z M 189.916 68.475 Q 189.916 70.721 191.088 72.185 Q 192.26 73.65 194.213 73.65 Q 195.287 73.65 196.093 73.201 Q 196.899 72.752 197.289 72.117 L 197.348 72.117 L 197.426 73.455 L 199.067 73.455 L 199.067 58.455 L 197.25 58.455 L 197.25 64.393 Q 196.801 63.758 196.044 63.372 Q 195.287 62.986 194.213 62.986 Q 192.26 62.986 191.088 64.451 Q 189.916 65.916 189.916 68.162 Z M 191.772 68.475 L 191.772 68.162 Q 191.772 66.6 192.455 65.535 Q 193.139 64.471 194.604 64.471 Q 195.58 64.471 196.264 65.008 Q 196.947 65.545 197.25 66.228 L 197.25 70.408 Q 196.947 71.092 196.264 71.629 Q 195.58 72.166 194.604 72.166 Q 193.139 72.166 192.455 71.101 Q 191.772 70.037 191.772 68.475 Z M 201.087 70.428 Q 201.087 71.99 202.112 72.82 Q 203.138 73.65 204.603 73.65 Q 205.872 73.65 206.678 73.162 Q 207.484 72.674 207.845 72.039 Q 207.874 72.43 207.986 72.82 Q 208.099 73.211 208.236 73.455 L 209.993 73.455 L 209.993 73.299 Q 209.818 72.869 209.72 72.308 Q 209.622 71.746 209.622 71.111 L 209.622 66.424 Q 209.622 64.666 208.602 63.777 Q 207.581 62.889 205.726 62.889 Q 203.87 62.889 202.781 63.802 Q 201.693 64.715 201.693 65.935 L 201.693 65.984 L 203.499 65.984 L 203.499 65.935 Q 203.499 65.301 204.002 64.817 Q 204.505 64.334 205.677 64.334 Q 206.849 64.334 207.327 64.915 Q 207.806 65.496 207.806 66.424 L 207.806 67.127 L 205.482 67.127 Q 203.568 67.127 202.327 67.996 Q 201.087 68.865 201.087 70.428 Z M 202.903 70.33 Q 202.903 69.451 203.607 68.934 Q 204.31 68.416 205.677 68.416 L 207.806 68.416 L 207.806 69.891 Q 207.806 70.721 206.937 71.463 Q 206.068 72.205 204.993 72.205 Q 203.919 72.205 203.411 71.707 Q 202.903 71.209 202.903 70.33 Z M 216.232 68.475 Q 216.232 70.799 217.507 72.273 Q 218.781 73.748 221.174 73.748 Q 222.639 73.748 223.659 73.113 Q 224.68 72.478 225.168 71.746 L 223.996 70.818 Q 223.556 71.404 222.853 71.834 Q 222.15 72.264 221.174 72.264 Q 219.592 72.264 218.84 71.165 Q 218.088 70.066 218.088 68.475 L 218.088 68.162 Q 218.088 66.57 218.801 65.472 Q 219.514 64.373 220.959 64.373 Q 222.15 64.373 222.785 65.154 Q 223.42 65.935 223.42 67.049 L 223.42 67.283 L 217.346 67.283 L 217.346 68.728 L 225.246 68.728 L 225.246 67.986 Q 225.246 65.643 224.113 64.266 Q 222.98 62.889 220.881 62.889 Q 218.781 62.889 217.507 64.363 Q 216.232 65.838 216.232 68.162 Z M 226.494 70.428 L 226.494 70.476 Q 226.494 71.961 227.568 72.854 Q 228.642 73.748 230.693 73.748 Q 232.744 73.748 233.769 72.869 Q 234.794 71.99 234.794 70.623 Q 234.794 69.256 233.891 68.523 Q 232.988 67.791 231.328 67.4 Q 229.667 67.01 229.101 66.668 Q 228.535 66.326 228.535 65.74 Q 228.535 65.154 229.028 64.764 Q 229.521 64.373 230.595 64.373 Q 231.669 64.373 232.182 64.793 Q 232.695 65.213 232.695 65.945 L 232.695 66.033 L 234.501 66.033 L 234.501 65.984 Q 234.501 64.559 233.427 63.724 Q 232.353 62.889 230.595 62.889 Q 228.837 62.889 227.788 63.728 Q 226.738 64.568 226.738 65.838 Q 226.738 67.107 227.714 67.815 Q 228.691 68.523 230.351 68.914 Q 232.011 69.305 232.509 69.671 Q 233.007 70.037 233.007 70.721 Q 233.007 71.404 232.387 71.834 Q 231.767 72.264 230.693 72.264 Q 229.619 72.264 228.964 71.814 Q 228.31 71.365 228.31 70.476 L 228.31 70.428 Z M 236.182 68.475 Q 236.182 70.799 237.446 72.273 Q 238.711 73.748 240.928 73.748 Q 242.979 73.748 244.043 72.64 Q 245.107 71.531 245.107 70.164 L 245.107 70.115 L 243.35 70.115 L 243.35 70.164 Q 243.35 70.994 242.773 71.629 Q 242.197 72.264 240.928 72.264 Q 239.443 72.264 238.74 71.165 Q 238.037 70.066 238.037 68.475 L 238.037 68.162 Q 238.037 66.57 238.74 65.472 Q 239.443 64.373 240.928 64.373 Q 242.197 64.373 242.773 65.008 Q 243.35 65.643 243.35 66.473 L 243.35 66.521 L 245.107 66.521 L 245.107 66.473 Q 245.107 65.105 244.043 63.997 Q 242.979 62.889 240.928 62.889 Q 238.711 62.889 237.446 64.363 Q 236.182 65.838 236.182 68.162 Z M 246.326 68.475 Q 246.326 70.799 247.644 72.273 Q 248.962 73.748 251.169 73.748 Q 253.376 73.748 254.695 72.273 Q 256.013 70.799 256.013 68.475 L 256.013 68.162 Q 256.013 65.838 254.695 64.363 Q 253.376 62.889 251.169 62.889 Q 248.962 62.889 247.644 64.363 Q 246.326 65.838 246.326 68.162 Z M 248.181 68.162 Q 248.181 66.57 248.933 65.472 Q 249.685 64.373 251.169 64.373 Q 252.654 64.373 253.406 65.472 Q 254.158 66.57 254.158 68.162 L 254.158 68.475 Q 254.158 70.066 253.406 71.165 Q 252.654 72.264 251.169 72.264 Q 249.685 72.264 248.933 71.165 Q 248.181 70.066 248.181 68.475 Z M 258.063 73.455 L 259.879 73.455 L 259.879 58.455 L 258.063 58.455 Z M 262.076 70.428 Q 262.076 71.99 263.102 72.82 Q 264.127 73.65 265.592 73.65 Q 266.862 73.65 267.667 73.162 Q 268.473 72.674 268.834 72.039 Q 268.863 72.43 268.976 72.82 Q 269.088 73.211 269.225 73.455 L 270.983 73.455 L 270.983 73.299 Q 270.807 72.869 270.709 72.308 Q 270.612 71.746 270.612 71.111 L 270.612 66.424 Q 270.612 64.666 269.591 63.777 Q 268.57 62.889 266.715 62.889 Q 264.86 62.889 263.771 63.802 Q 262.682 64.715 262.682 65.935 L 262.682 65.984 L 264.488 65.984 L 264.488 65.935 Q 264.488 65.301 264.991 64.817 Q 265.494 64.334 266.666 64.334 Q 267.838 64.334 268.317 64.915 Q 268.795 65.496 268.795 66.424 L 268.795 67.127 L 266.471 67.127 Q 264.557 67.127 263.317 67.996 Q 262.076 68.865 262.076 70.428 Z M 263.893 70.33 Q 263.893 69.451 264.596 68.934 Q 265.299 68.416 266.666 68.416 L 268.795 68.416 L 268.795 69.891 Q 268.795 70.721 267.926 71.463 Q 267.057 72.205 265.983 72.205 Q 264.908 72.205 264.401 71.707 Q 263.893 71.209 263.893 70.33 Z" style="fill: rgb(84, 85, 103); text-wrap-mode: nowrap;"/>
</svg>