<?xml version="1.0" encoding="utf-8"?>
<svg width="370" height="110" viewBox="0 0 370 110" fill="none" xmlns="http://www.w3.org/2000/svg">
  <g filter="url(#filter0_b)">
    <rect width="370" height="110" rx="20" fill="white" fill-opacity="0.8"/>
  </g>
  <rect x="26" y="30" width="50" height="50" rx="8" fill="#F88C3D"/>
  <path d="M64.9285 44.2857H37.0714L51 55.7586L65.086 44.3179C65.0345 44.3028 64.9818 44.2921 64.9285 44.2857Z" fill="white"/>
  <path d="M51.676 57.9742C51.2813 58.2975 50.7133 58.2975 50.3186 57.9742L36 46.1778V64.6428C36 65.2346 36.4797 65.7143 37.0714 65.7143H64.9285C65.5203 65.7143 66 65.2346 66 64.6428V46.3364L51.676 57.9742Z" fill="white"/>
  <defs>
    <filter id="filter0_b" x="-20" y="-20" width="410" height="150" filterUnits="userSpaceOnUse" color-interpolation-filters="sRGB">
      <feFlood flood-opacity="0" result="BackgroundImageFix"/>
      <feGaussianBlur in="BackgroundImage" stdDeviation="10"/>
      <feComposite in2="SourceAlpha" operator="in" result="effect1_backgroundBlur"/>
      <feBlend mode="normal" in="SourceGraphic" in2="effect1_backgroundBlur" result="shape"/>
    </filter>
  </defs>
  <path d="M 110.731 44.668 Q 110.731 44.072 110.547 43.602 Q 110.363 43.132 109.912 42.751 Q 109.461 42.37 108.649 42.015 Q 107.836 41.66 106.592 41.279 Q 105.259 40.872 104.148 40.371 Q 103.038 39.87 102.225 39.209 Q 101.413 38.549 100.975 37.692 Q 100.537 36.835 100.537 35.718 Q 100.537 34.614 101 33.687 Q 101.463 32.76 102.32 32.081 Q 103.177 31.402 104.364 31.027 Q 105.551 30.653 106.998 30.653 Q 109.08 30.653 110.553 31.427 Q 112.026 32.202 112.819 33.477 Q 113.613 34.753 113.613 36.277 L 110.718 36.277 Q 110.718 35.312 110.306 34.569 Q 109.893 33.827 109.068 33.395 Q 108.243 32.963 106.986 32.963 Q 105.78 32.963 104.993 33.325 Q 104.205 33.687 103.818 34.303 Q 103.431 34.918 103.431 35.705 Q 103.431 36.251 103.679 36.696 Q 103.926 37.14 104.434 37.521 Q 104.942 37.902 105.716 38.225 Q 106.491 38.549 107.557 38.854 Q 109.106 39.311 110.248 39.863 Q 111.391 40.415 112.146 41.107 Q 112.902 41.799 113.276 42.669 Q 113.651 43.538 113.651 44.643 Q 113.651 45.798 113.187 46.725 Q 112.724 47.652 111.861 48.299 Q 110.997 48.947 109.791 49.296 Q 108.585 49.645 107.113 49.645 Q 105.792 49.645 104.523 49.289 Q 103.253 48.934 102.219 48.21 Q 101.184 47.487 100.568 46.408 Q 99.953 45.328 99.953 43.894 L 102.86 43.894 Q 102.86 44.808 103.19 45.462 Q 103.52 46.116 104.11 46.535 Q 104.701 46.953 105.475 47.15 Q 106.249 47.347 107.113 47.347 Q 108.293 47.347 109.1 47.017 Q 109.906 46.687 110.318 46.078 Q 110.731 45.468 110.731 44.668 Z M 124.577 46.179 L 124.577 35.655 L 127.37 35.655 L 127.37 49.391 L 124.729 49.391 Z M 125.008 43.31 L 126.024 43.285 Q 126.024 44.656 125.726 45.824 Q 125.427 46.992 124.793 47.842 Q 124.158 48.693 123.149 49.169 Q 122.139 49.645 120.73 49.645 Q 119.715 49.645 118.883 49.353 Q 118.051 49.061 117.455 48.452 Q 116.858 47.842 116.528 46.865 Q 116.198 45.887 116.198 44.516 L 116.198 35.655 L 118.991 35.655 L 118.991 44.541 Q 118.991 45.367 119.175 45.906 Q 119.359 46.446 119.689 46.769 Q 120.019 47.093 120.438 47.226 Q 120.857 47.36 121.327 47.36 Q 122.711 47.36 123.51 46.82 Q 124.31 46.281 124.659 45.36 Q 125.008 44.44 125.008 43.31 Z M 138.542 46.788 L 138.542 40.035 Q 138.542 39.286 138.257 38.721 Q 137.971 38.156 137.387 37.851 Q 136.803 37.546 135.94 37.546 Q 135.14 37.546 134.55 37.819 Q 133.959 38.092 133.629 38.549 Q 133.299 39.006 133.299 39.565 L 130.506 39.565 Q 130.506 38.778 130.9 38.029 Q 131.293 37.28 132.023 36.689 Q 132.753 36.099 133.788 35.75 Q 134.823 35.401 136.092 35.401 Q 137.628 35.401 138.809 35.915 Q 139.99 36.429 140.663 37.47 Q 141.335 38.511 141.335 40.06 L 141.335 46.293 Q 141.335 47.119 141.462 47.874 Q 141.589 48.629 141.843 49.188 L 141.843 49.391 L 138.974 49.391 Q 138.771 48.934 138.657 48.198 Q 138.542 47.461 138.542 46.788 Z M 138.974 41.05 L 138.999 42.84 L 136.74 42.84 Q 135.826 42.84 135.127 42.999 Q 134.429 43.158 133.959 43.469 Q 133.49 43.78 133.248 44.23 Q 133.007 44.681 133.007 45.265 Q 133.007 45.849 133.274 46.325 Q 133.54 46.801 134.067 47.08 Q 134.594 47.36 135.356 47.36 Q 136.346 47.36 137.102 46.947 Q 137.857 46.535 138.295 45.932 Q 138.733 45.328 138.758 44.77 L 139.748 46.052 Q 139.622 46.573 139.241 47.195 Q 138.86 47.817 138.25 48.369 Q 137.641 48.921 136.79 49.283 Q 135.94 49.645 134.861 49.645 Q 133.49 49.645 132.442 49.105 Q 131.395 48.566 130.805 47.639 Q 130.214 46.712 130.214 45.557 Q 130.214 44.465 130.633 43.621 Q 131.052 42.777 131.858 42.205 Q 132.664 41.634 133.826 41.342 Q 134.988 41.05 136.448 41.05 Z M 155.525 47.08 L 159.055 35.655 L 161.924 35.655 L 157.087 49.391 L 155.271 49.391 Z M 152.745 35.655 L 156.338 47.131 L 156.541 49.391 L 154.713 49.391 L 149.851 35.655 Z M 171.647 46.788 L 171.647 40.035 Q 171.647 39.286 171.361 38.721 Q 171.075 38.156 170.491 37.851 Q 169.907 37.546 169.044 37.546 Q 168.244 37.546 167.654 37.819 Q 167.064 38.092 166.733 38.549 Q 166.403 39.006 166.403 39.565 L 163.61 39.565 Q 163.61 38.778 164.004 38.029 Q 164.398 37.28 165.128 36.689 Q 165.857 36.099 166.892 35.75 Q 167.927 35.401 169.196 35.401 Q 170.732 35.401 171.913 35.915 Q 173.094 36.429 173.767 37.47 Q 174.44 38.511 174.44 40.06 L 174.44 46.293 Q 174.44 47.119 174.566 47.874 Q 174.693 48.629 174.947 49.188 L 174.947 49.391 L 172.078 49.391 Q 171.875 48.934 171.761 48.198 Q 171.647 47.461 171.647 46.788 Z M 172.078 41.05 L 172.104 42.84 L 169.844 42.84 Q 168.93 42.84 168.232 42.999 Q 167.533 43.158 167.064 43.469 Q 166.594 43.78 166.353 44.23 Q 166.111 44.681 166.111 45.265 Q 166.111 45.849 166.378 46.325 Q 166.645 46.801 167.171 47.08 Q 167.698 47.36 168.46 47.36 Q 169.45 47.36 170.206 46.947 Q 170.961 46.535 171.399 45.932 Q 171.837 45.328 171.862 44.77 L 172.853 46.052 Q 172.726 46.573 172.345 47.195 Q 171.964 47.817 171.355 48.369 Q 170.745 48.921 169.895 49.283 Q 169.044 49.645 167.965 49.645 Q 166.594 49.645 165.546 49.105 Q 164.499 48.566 163.909 47.639 Q 163.318 46.712 163.318 45.557 Q 163.318 44.465 163.737 43.621 Q 164.156 42.777 164.962 42.205 Q 165.769 41.634 166.93 41.342 Q 168.092 41.05 169.552 41.05 Z M 186.678 35.655 L 189.204 35.655 L 189.204 49.048 Q 189.204 50.876 188.436 52.171 Q 187.668 53.466 186.297 54.139 Q 184.926 54.812 183.123 54.812 Q 182.361 54.812 181.403 54.583 Q 180.444 54.355 179.543 53.847 Q 178.641 53.339 178.032 52.501 L 179.39 50.851 Q 180.178 51.778 181.085 52.19 Q 181.993 52.603 182.958 52.603 Q 184.024 52.603 184.799 52.203 Q 185.573 51.803 185.992 51.029 Q 186.411 50.254 186.411 49.124 L 186.411 38.727 Z M 177.296 42.675 L 177.296 42.409 Q 177.296 40.834 177.67 39.546 Q 178.045 38.257 178.756 37.33 Q 179.467 36.404 180.476 35.902 Q 181.485 35.401 182.755 35.401 Q 184.075 35.401 185.033 35.87 Q 185.992 36.34 186.646 37.223 Q 187.3 38.105 187.674 39.33 Q 188.049 40.555 188.214 42.066 L 188.214 43.043 Q 188.049 44.529 187.655 45.741 Q 187.261 46.953 186.601 47.829 Q 185.941 48.705 184.983 49.175 Q 184.024 49.645 182.729 49.645 Q 181.485 49.645 180.482 49.124 Q 179.479 48.604 178.762 47.664 Q 178.045 46.725 177.67 45.449 Q 177.296 44.173 177.296 42.675 Z M 180.076 42.409 L 180.076 42.675 Q 180.076 43.653 180.273 44.497 Q 180.469 45.341 180.876 45.982 Q 181.282 46.623 181.917 46.992 Q 182.552 47.36 183.428 47.36 Q 184.532 47.36 185.249 46.884 Q 185.967 46.408 186.373 45.614 Q 186.779 44.821 186.969 43.869 L 186.969 41.279 Q 186.868 40.542 186.614 39.895 Q 186.36 39.247 185.948 38.752 Q 185.535 38.257 184.913 37.972 Q 184.291 37.686 183.453 37.686 Q 182.564 37.686 181.929 38.054 Q 181.295 38.422 180.882 39.076 Q 180.469 39.73 180.273 40.58 Q 180.076 41.431 180.076 42.409 Z M 200.399 46.788 L 200.399 40.035 Q 200.399 39.286 200.114 38.721 Q 199.828 38.156 199.244 37.851 Q 198.66 37.546 197.797 37.546 Q 196.997 37.546 196.407 37.819 Q 195.816 38.092 195.486 38.549 Q 195.156 39.006 195.156 39.565 L 192.363 39.565 Q 192.363 38.778 192.757 38.029 Q 193.15 37.28 193.88 36.689 Q 194.61 36.099 195.645 35.75 Q 196.68 35.401 197.949 35.401 Q 199.485 35.401 200.666 35.915 Q 201.847 36.429 202.519 37.47 Q 203.192 38.511 203.192 40.06 L 203.192 46.293 Q 203.192 47.119 203.319 47.874 Q 203.446 48.629 203.7 49.188 L 203.7 49.391 L 200.831 49.391 Q 200.628 48.934 200.514 48.198 Q 200.399 47.461 200.399 46.788 Z M 200.831 41.05 L 200.856 42.84 L 198.597 42.84 Q 197.682 42.84 196.984 42.999 Q 196.286 43.158 195.816 43.469 Q 195.347 43.78 195.105 44.23 Q 194.864 44.681 194.864 45.265 Q 194.864 45.849 195.131 46.325 Q 195.397 46.801 195.924 47.08 Q 196.451 47.36 197.213 47.36 Q 198.203 47.36 198.958 46.947 Q 199.714 46.535 200.152 45.932 Q 200.59 45.328 200.615 44.77 L 201.605 46.052 Q 201.478 46.573 201.098 47.195 Q 200.717 47.817 200.107 48.369 Q 199.498 48.921 198.647 49.283 Q 197.797 49.645 196.718 49.645 Q 195.347 49.645 194.299 49.105 Q 193.252 48.566 192.661 47.639 Q 192.071 46.712 192.071 45.557 Q 192.071 44.465 192.49 43.621 Q 192.909 42.777 193.715 42.205 Q 194.521 41.634 195.683 41.342 Q 196.845 41.05 198.305 41.05 Z M 221.88 35.655 L 224.407 35.655 L 224.407 49.048 Q 224.407 50.876 223.639 52.171 Q 222.871 53.466 221.499 54.139 Q 220.128 54.812 218.326 54.812 Q 217.564 54.812 216.605 54.583 Q 215.647 54.355 214.746 53.847 Q 213.844 53.339 213.235 52.501 L 214.593 50.851 Q 215.38 51.778 216.288 52.19 Q 217.196 52.603 218.161 52.603 Q 219.227 52.603 220.001 52.203 Q 220.776 51.803 221.195 51.029 Q 221.614 50.254 221.614 49.124 L 221.614 38.727 Z M 212.498 42.675 L 212.498 42.409 Q 212.498 40.834 212.873 39.546 Q 213.247 38.257 213.958 37.33 Q 214.669 36.404 215.679 35.902 Q 216.688 35.401 217.957 35.401 Q 219.278 35.401 220.236 35.87 Q 221.195 36.34 221.849 37.223 Q 222.502 38.105 222.877 39.33 Q 223.251 40.555 223.416 42.066 L 223.416 43.043 Q 223.251 44.529 222.858 45.741 Q 222.464 46.953 221.804 47.829 Q 221.144 48.705 220.185 49.175 Q 219.227 49.645 217.932 49.645 Q 216.688 49.645 215.685 49.124 Q 214.682 48.604 213.965 47.664 Q 213.247 46.725 212.873 45.449 Q 212.498 44.173 212.498 42.675 Z M 215.279 42.409 L 215.279 42.675 Q 215.279 43.653 215.476 44.497 Q 215.672 45.341 216.079 45.982 Q 216.485 46.623 217.12 46.992 Q 217.754 47.36 218.63 47.36 Q 219.735 47.36 220.452 46.884 Q 221.169 46.408 221.576 45.614 Q 221.982 44.821 222.172 43.869 L 222.172 41.279 Q 222.071 40.542 221.817 39.895 Q 221.563 39.247 221.15 38.752 Q 220.738 38.257 220.116 37.972 Q 219.494 37.686 218.656 37.686 Q 217.767 37.686 217.132 38.054 Q 216.497 38.422 216.085 39.076 Q 215.672 39.73 215.476 40.58 Q 215.279 41.431 215.279 42.409 Z M 235.602 46.788 L 235.602 40.035 Q 235.602 39.286 235.316 38.721 Q 235.031 38.156 234.447 37.851 Q 233.863 37.546 233 37.546 Q 232.2 37.546 231.609 37.819 Q 231.019 38.092 230.689 38.549 Q 230.359 39.006 230.359 39.565 L 227.566 39.565 Q 227.566 38.778 227.959 38.029 Q 228.353 37.28 229.083 36.689 Q 229.813 36.099 230.848 35.75 Q 231.882 35.401 233.152 35.401 Q 234.688 35.401 235.869 35.915 Q 237.049 36.429 237.722 37.47 Q 238.395 38.511 238.395 40.06 L 238.395 46.293 Q 238.395 47.119 238.522 47.874 Q 238.649 48.629 238.903 49.188 L 238.903 49.391 L 236.034 49.391 Q 235.831 48.934 235.716 48.198 Q 235.602 47.461 235.602 46.788 Z M 236.034 41.05 L 236.059 42.84 L 233.799 42.84 Q 232.885 42.84 232.187 42.999 Q 231.489 43.158 231.019 43.469 Q 230.549 43.78 230.308 44.23 Q 230.067 44.681 230.067 45.265 Q 230.067 45.849 230.333 46.325 Q 230.6 46.801 231.127 47.08 Q 231.654 47.36 232.416 47.36 Q 233.406 47.36 234.161 46.947 Q 234.917 46.535 235.354 45.932 Q 235.792 45.328 235.818 44.77 L 236.808 46.052 Q 236.681 46.573 236.3 47.195 Q 235.919 47.817 235.31 48.369 Q 234.701 48.921 233.85 49.283 Q 233 49.645 231.92 49.645 Q 230.549 49.645 229.502 49.105 Q 228.455 48.566 227.864 47.639 Q 227.274 46.712 227.274 45.557 Q 227.274 44.465 227.693 43.621 Q 228.112 42.777 228.918 42.205 Q 229.724 41.634 230.886 41.342 Q 232.047 41.05 233.507 41.05 Z M 244.59 38.092 L 244.59 49.391 L 241.797 49.391 L 241.797 35.655 L 244.476 35.655 Z M 248.83 35.578 L 248.805 38.168 Q 248.513 38.105 248.215 38.086 Q 247.916 38.067 247.599 38.067 Q 246.799 38.067 246.196 38.302 Q 245.593 38.537 245.18 38.962 Q 244.768 39.387 244.539 39.99 Q 244.311 40.593 244.26 41.329 L 243.574 41.507 Q 243.574 40.225 243.828 39.127 Q 244.082 38.029 244.596 37.184 Q 245.111 36.34 245.898 35.87 Q 246.685 35.401 247.751 35.401 Q 248.018 35.401 248.348 35.452 Q 248.678 35.502 248.83 35.578 Z M 258.237 46.788 L 258.237 40.035 Q 258.237 39.286 257.951 38.721 Q 257.665 38.156 257.081 37.851 Q 256.497 37.546 255.634 37.546 Q 254.834 37.546 254.244 37.819 Q 253.654 38.092 253.324 38.549 Q 252.993 39.006 252.993 39.565 L 250.201 39.565 Q 250.201 38.778 250.594 38.029 Q 250.988 37.28 251.718 36.689 Q 252.448 36.099 253.482 35.75 Q 254.517 35.401 255.786 35.401 Q 257.323 35.401 258.503 35.915 Q 259.684 36.429 260.357 37.47 Q 261.03 38.511 261.03 40.06 L 261.03 46.293 Q 261.03 47.119 261.157 47.874 Q 261.284 48.629 261.537 49.188 L 261.537 49.391 L 258.668 49.391 Q 258.465 48.934 258.351 48.198 Q 258.237 47.461 258.237 46.788 Z M 258.668 41.05 L 258.694 42.84 L 256.434 42.84 Q 255.52 42.84 254.822 42.999 Q 254.123 43.158 253.654 43.469 Q 253.184 43.78 252.943 44.23 Q 252.702 44.681 252.702 45.265 Q 252.702 45.849 252.968 46.325 Q 253.235 46.801 253.762 47.08 Q 254.288 47.36 255.05 47.36 Q 256.04 47.36 256.796 46.947 Q 257.551 46.535 257.989 45.932 Q 258.427 45.328 258.452 44.77 L 259.443 46.052 Q 259.316 46.573 258.935 47.195 Q 258.554 47.817 257.945 48.369 Q 257.335 48.921 256.485 49.283 Q 255.634 49.645 254.555 49.645 Q 253.184 49.645 252.137 49.105 Q 251.089 48.566 250.499 47.639 Q 249.909 46.712 249.909 45.557 Q 249.909 44.465 250.327 43.621 Q 250.746 42.777 251.553 42.205 Q 252.359 41.634 253.52 41.342 Q 254.682 41.05 256.142 41.05 Z M 267.199 38.587 L 267.199 49.391 L 264.406 49.391 L 264.406 35.655 L 267.034 35.655 Z M 266.653 42.015 L 265.663 41.99 Q 265.676 40.542 266.076 39.336 Q 266.476 38.13 267.206 37.248 Q 267.936 36.366 268.945 35.883 Q 269.954 35.401 271.186 35.401 Q 272.189 35.401 272.995 35.674 Q 273.801 35.947 274.378 36.55 Q 274.956 37.153 275.261 38.118 Q 275.565 39.082 275.565 40.466 L 275.565 49.391 L 272.772 49.391 L 272.772 40.453 Q 272.772 39.425 272.474 38.822 Q 272.176 38.219 271.605 37.953 Q 271.033 37.686 270.208 37.686 Q 269.383 37.686 268.723 38.029 Q 268.063 38.371 267.605 38.974 Q 267.148 39.578 266.901 40.358 Q 266.653 41.139 266.653 42.015 Z M 284.946 35.655 L 284.946 37.724 L 277.329 37.724 L 277.329 35.655 Z M 279.665 32.303 L 282.458 32.303 L 282.458 45.747 Q 282.458 46.408 282.649 46.75 Q 282.839 47.093 283.175 47.207 Q 283.512 47.322 283.943 47.322 Q 284.248 47.322 284.553 47.271 Q 284.858 47.22 285.035 47.182 L 285.048 49.366 Q 284.705 49.48 284.223 49.562 Q 283.74 49.645 283.093 49.645 Q 282.115 49.645 281.335 49.283 Q 280.554 48.921 280.109 48.083 Q 279.665 47.245 279.665 45.849 Z M 290.469 35.655 L 290.469 49.391 L 287.664 49.391 L 287.664 35.655 Z M 287.473 32.037 Q 287.473 31.389 287.892 30.951 Q 288.311 30.513 289.086 30.513 Q 289.835 30.513 290.266 30.951 Q 290.698 31.389 290.698 32.037 Q 290.698 32.659 290.266 33.09 Q 289.835 33.522 289.086 33.522 Q 288.311 33.522 287.892 33.09 Q 287.473 32.659 287.473 32.037 Z M 302.463 46.611 L 302.463 29.891 L 305.269 29.891 L 305.269 49.391 L 302.717 49.391 Z M 293.399 42.675 L 293.399 42.409 Q 293.399 40.834 293.78 39.546 Q 294.16 38.257 294.865 37.33 Q 295.57 36.404 296.566 35.902 Q 297.563 35.401 298.82 35.401 Q 300.089 35.401 301.035 35.87 Q 301.981 36.34 302.647 37.223 Q 303.314 38.105 303.707 39.33 Q 304.101 40.555 304.266 42.066 L 304.266 43.043 Q 304.114 44.529 303.714 45.741 Q 303.314 46.953 302.647 47.829 Q 301.981 48.705 301.029 49.175 Q 300.076 49.645 298.794 49.645 Q 297.563 49.645 296.566 49.124 Q 295.57 48.604 294.865 47.664 Q 294.16 46.725 293.78 45.449 Q 293.399 44.173 293.399 42.675 Z M 296.204 42.409 L 296.204 42.675 Q 296.204 43.653 296.388 44.497 Q 296.573 45.341 296.972 45.982 Q 297.372 46.623 297.994 46.992 Q 298.617 47.36 299.492 47.36 Q 300.584 47.36 301.289 46.884 Q 301.993 46.408 302.406 45.614 Q 302.819 44.821 303.009 43.869 L 303.009 41.279 Q 302.895 40.542 302.641 39.895 Q 302.387 39.247 301.974 38.752 Q 301.562 38.257 300.952 37.972 Q 300.343 37.686 299.518 37.686 Q 298.642 37.686 298.013 38.054 Q 297.385 38.422 296.979 39.076 Q 296.573 39.73 296.388 40.58 Q 296.204 41.431 296.204 42.409 Z M 316.505 46.788 L 316.505 40.035 Q 316.505 39.286 316.219 38.721 Q 315.934 38.156 315.35 37.851 Q 314.766 37.546 313.902 37.546 Q 313.103 37.546 312.512 37.819 Q 311.922 38.092 311.592 38.549 Q 311.262 39.006 311.262 39.565 L 308.469 39.565 Q 308.469 38.778 308.862 38.029 Q 309.256 37.28 309.986 36.689 Q 310.716 36.099 311.75 35.75 Q 312.785 35.401 314.055 35.401 Q 315.591 35.401 316.771 35.915 Q 317.952 36.429 318.625 37.47 Q 319.298 38.511 319.298 40.06 L 319.298 46.293 Q 319.298 47.119 319.425 47.874 Q 319.552 48.629 319.806 49.188 L 319.806 49.391 L 316.936 49.391 Q 316.733 48.934 316.619 48.198 Q 316.505 47.461 316.505 46.788 Z M 316.936 41.05 L 316.962 42.84 L 314.702 42.84 Q 313.788 42.84 313.09 42.999 Q 312.392 43.158 311.922 43.469 Q 311.452 43.78 311.211 44.23 Q 310.97 44.681 310.97 45.265 Q 310.97 45.849 311.236 46.325 Q 311.503 46.801 312.03 47.08 Q 312.557 47.36 313.318 47.36 Q 314.309 47.36 315.064 46.947 Q 315.819 46.535 316.257 45.932 Q 316.695 45.328 316.721 44.77 L 317.711 46.052 Q 317.584 46.573 317.203 47.195 Q 316.822 47.817 316.213 48.369 Q 315.603 48.921 314.753 49.283 Q 313.902 49.645 312.823 49.645 Q 311.452 49.645 310.405 49.105 Q 309.357 48.566 308.767 47.639 Q 308.177 46.712 308.177 45.557 Q 308.177 44.465 308.596 43.621 Q 309.015 42.777 309.821 42.205 Q 310.627 41.634 311.789 41.342 Q 312.95 41.05 314.41 41.05 Z M 325.95 30.907 L 325.696 44.034 L 323.258 44.034 L 323.005 30.907 Z M 322.916 48.045 Q 322.916 47.398 323.335 46.953 Q 323.754 46.509 324.528 46.509 Q 325.29 46.509 325.715 46.953 Q 326.14 47.398 326.14 48.045 Q 326.14 48.667 325.715 49.112 Q 325.29 49.556 324.528 49.556 Q 323.754 49.556 323.335 49.112 Q 322.916 48.667 322.916 48.045 Z" style="fill: rgb(89, 89, 89); text-wrap-mode: nowrap;"/>
  <path d="M 101.129 72.411 Q 101.129 75.692 102.814 77.528 Q 104.498 79.364 107.037 79.364 Q 109.576 79.364 110.914 77.967 Q 112.252 76.571 112.447 74.618 L 112.457 74.52 L 110.582 74.52 L 110.572 74.618 Q 110.436 75.946 109.576 76.854 Q 108.717 77.762 107.037 77.762 Q 105.279 77.762 104.152 76.337 Q 103.024 74.911 103.024 72.411 L 103.024 71.512 Q 103.024 68.798 104.156 67.479 Q 105.289 66.161 107.037 66.161 Q 108.824 66.161 109.703 67.054 Q 110.582 67.948 110.582 69.305 L 110.582 69.403 L 112.457 69.403 L 112.457 69.305 Q 112.457 67.342 111.017 65.951 Q 109.576 64.559 107.037 64.559 Q 104.498 64.559 102.814 66.395 Q 101.129 68.231 101.129 71.512 Z M 113.764 74.091 Q 113.764 76.415 115.082 77.889 Q 116.401 79.364 118.608 79.364 Q 120.815 79.364 122.133 77.889 Q 123.451 76.415 123.451 74.091 L 123.451 73.778 Q 123.451 71.454 122.133 69.979 Q 120.815 68.505 118.608 68.505 Q 116.401 68.505 115.082 69.979 Q 113.764 71.454 113.764 73.778 Z M 115.619 73.778 Q 115.619 72.186 116.371 71.088 Q 117.123 69.989 118.608 69.989 Q 120.092 69.989 120.844 71.088 Q 121.596 72.186 121.596 73.778 L 121.596 74.091 Q 121.596 75.682 120.844 76.781 Q 120.092 77.88 118.608 77.88 Q 117.123 77.88 116.371 76.781 Q 115.619 75.682 115.619 74.091 Z M 125.422 79.071 L 127.238 79.071 L 127.238 71.805 Q 127.609 71.063 128.273 70.594 Q 128.937 70.126 129.807 70.126 Q 130.822 70.126 131.374 70.658 Q 131.926 71.19 131.926 72.421 L 131.926 79.071 L 133.742 79.071 L 133.742 72.44 Q 133.742 70.37 132.819 69.486 Q 131.896 68.602 130.344 68.602 Q 129.367 68.602 128.561 69.008 Q 127.756 69.413 127.199 70.116 L 127.141 70.116 L 127.062 68.798 L 125.422 68.798 Z M 136.7 79.071 L 138.516 79.071 L 138.516 69.598 L 138.516 69.383 L 138.516 67.352 Q 138.516 66.376 138.995 65.887 Q 139.473 65.399 140.352 65.399 Q 140.606 65.399 140.85 65.428 Q 141.094 65.458 141.309 65.497 L 141.407 64.032 Q 141.114 63.954 140.792 63.915 Q 140.469 63.876 140.157 63.876 Q 138.555 63.876 137.628 64.764 Q 136.7 65.653 136.7 67.352 Z M 135.03 70.184 L 140.743 70.184 L 140.743 68.798 L 137.833 68.798 L 137.384 68.798 L 135.03 68.798 Z M 142.178 79.071 L 143.995 79.071 L 143.995 68.798 L 142.178 68.798 Z M 141.954 65.692 Q 141.954 66.151 142.247 66.464 Q 142.54 66.776 143.087 66.776 Q 143.634 66.776 143.927 66.464 Q 144.219 66.151 144.219 65.692 Q 144.219 65.233 143.927 64.921 Q 143.634 64.608 143.087 64.608 Q 142.54 64.608 142.247 64.921 Q 141.954 65.233 141.954 65.692 Z M 146.602 79.071 L 148.418 79.071 L 148.418 71.844 Q 148.711 71.161 149.327 70.702 Q 149.942 70.243 150.821 70.243 Q 151.075 70.243 151.289 70.262 Q 151.504 70.282 151.7 70.321 L 151.7 68.641 Q 151.602 68.602 151.368 68.553 Q 151.133 68.505 150.918 68.505 Q 150.039 68.505 149.405 68.988 Q 148.77 69.471 148.379 70.116 L 148.321 70.116 L 148.243 68.798 L 146.602 68.798 Z M 153.23 79.071 L 155.046 79.071 L 155.046 71.805 Q 155.417 71.063 156.047 70.594 Q 156.677 70.126 157.517 70.126 Q 158.484 70.126 159.011 70.658 Q 159.538 71.19 159.538 72.421 L 159.538 79.071 L 161.355 79.071 L 161.355 71.805 Q 161.726 71.063 162.356 70.594 Q 162.986 70.126 163.826 70.126 Q 164.792 70.126 165.32 70.658 Q 165.847 71.19 165.847 72.421 L 165.847 79.071 L 167.663 79.071 L 167.663 72.44 Q 167.663 70.37 166.765 69.486 Q 165.867 68.602 164.265 68.602 Q 163.249 68.602 162.468 69.012 Q 161.687 69.423 161.042 70.341 L 160.984 70.341 Q 160.593 69.423 159.841 69.012 Q 159.089 68.602 158.054 68.602 Q 157.107 68.602 156.33 69.012 Q 155.554 69.423 155.007 70.116 L 154.949 70.116 L 154.87 68.798 L 153.23 68.798 Z M 169.468 76.044 Q 169.468 77.606 170.494 78.436 Q 171.519 79.266 172.984 79.266 Q 174.254 79.266 175.059 78.778 Q 175.865 78.29 176.226 77.655 Q 176.256 78.046 176.368 78.436 Q 176.48 78.827 176.617 79.071 L 178.375 79.071 L 178.375 78.915 Q 178.199 78.485 178.101 77.924 Q 178.004 77.362 178.004 76.727 L 178.004 72.04 Q 178.004 70.282 176.983 69.393 Q 175.963 68.505 174.107 68.505 Q 172.252 68.505 171.163 69.418 Q 170.074 70.331 170.074 71.551 L 170.074 71.6 L 171.881 71.6 L 171.881 71.551 Q 171.881 70.917 172.384 70.433 Q 172.886 69.95 174.058 69.95 Q 175.23 69.95 175.709 70.531 Q 176.187 71.112 176.187 72.04 L 176.187 72.743 L 173.863 72.743 Q 171.949 72.743 170.709 73.612 Q 169.468 74.481 169.468 76.044 Z M 171.285 75.946 Q 171.285 75.067 171.988 74.55 Q 172.691 74.032 174.058 74.032 L 176.187 74.032 L 176.187 75.507 Q 176.187 76.337 175.318 77.079 Q 174.449 77.821 173.375 77.821 Q 172.301 77.821 171.793 77.323 Q 171.285 76.825 171.285 75.946 Z M 179.929 74.091 Q 179.929 76.415 181.193 77.889 Q 182.458 79.364 184.675 79.364 Q 186.726 79.364 187.79 78.256 Q 188.855 77.147 188.855 75.78 L 188.855 75.731 L 187.097 75.731 L 187.097 75.78 Q 187.097 76.61 186.521 77.245 Q 185.944 77.88 184.675 77.88 Q 183.19 77.88 182.487 76.781 Q 181.784 75.682 181.784 74.091 L 181.784 73.778 Q 181.784 72.186 182.487 71.088 Q 183.19 69.989 184.675 69.989 Q 185.944 69.989 186.521 70.624 Q 187.097 71.258 187.097 72.089 L 187.097 72.137 L 188.855 72.137 L 188.855 72.089 Q 188.855 70.721 187.79 69.613 Q 186.726 68.505 184.675 68.505 Q 182.458 68.505 181.193 69.979 Q 179.929 71.454 179.929 73.778 Z M 183.972 78.876 L 183.571 80.604 Q 184.392 80.673 184.68 80.853 Q 184.968 81.034 184.968 81.512 Q 184.968 82.03 184.582 82.259 Q 184.196 82.489 183.005 82.489 L 183.073 83.534 Q 185.046 83.534 185.896 82.967 Q 186.745 82.401 186.745 81.493 Q 186.745 80.643 186.13 80.272 Q 185.515 79.901 184.958 79.803 L 185.231 78.876 Z M 190.123 76.044 Q 190.123 77.606 191.148 78.436 Q 192.174 79.266 193.639 79.266 Q 194.908 79.266 195.714 78.778 Q 196.519 78.29 196.881 77.655 Q 196.91 78.046 197.022 78.436 Q 197.135 78.827 197.271 79.071 L 199.029 79.071 L 199.029 78.915 Q 198.853 78.485 198.756 77.924 Q 198.658 77.362 198.658 76.727 L 198.658 72.04 Q 198.658 70.282 197.638 69.393 Q 196.617 68.505 194.762 68.505 Q 192.906 68.505 191.817 69.418 Q 190.728 70.331 190.728 71.551 L 190.728 71.6 L 192.535 71.6 L 192.535 71.551 Q 192.535 70.917 193.038 70.433 Q 193.541 69.95 194.713 69.95 Q 195.885 69.95 196.363 70.531 Q 196.842 71.112 196.842 72.04 L 196.842 72.743 L 194.518 72.743 Q 192.603 72.743 191.363 73.612 Q 190.123 74.481 190.123 76.044 Z M 191.939 75.946 Q 191.939 75.067 192.643 74.55 Q 193.346 74.032 194.713 74.032 L 196.842 74.032 L 196.842 75.507 Q 196.842 76.337 195.973 77.079 Q 195.103 77.821 194.029 77.821 Q 192.955 77.821 192.447 77.323 Q 191.939 76.825 191.939 75.946 Z M 191.168 66.122 L 191.91 67.02 Q 192.086 66.757 192.481 66.405 Q 192.877 66.053 193.336 66.053 Q 193.619 66.053 193.951 66.219 Q 194.283 66.385 194.615 66.571 Q 194.918 66.737 195.377 66.947 Q 195.836 67.157 196.314 67.157 Q 196.871 67.157 197.52 66.805 Q 198.17 66.454 198.541 65.76 L 197.75 64.803 Q 197.525 65.155 197.184 65.414 Q 196.842 65.673 196.451 65.673 Q 196.08 65.673 195.699 65.458 Q 195.318 65.243 194.986 65.028 Q 194.625 64.794 194.259 64.672 Q 193.893 64.55 193.492 64.55 Q 192.838 64.55 192.164 65.028 Q 191.49 65.507 191.168 66.122 Z M 200.579 74.091 Q 200.579 76.415 201.898 77.889 Q 203.216 79.364 205.423 79.364 Q 207.63 79.364 208.948 77.889 Q 210.267 76.415 210.267 74.091 L 210.267 73.778 Q 210.267 71.454 208.948 69.979 Q 207.63 68.505 205.423 68.505 Q 203.216 68.505 201.898 69.979 Q 200.579 71.454 200.579 73.778 Z M 202.435 73.778 Q 202.435 72.186 203.187 71.088 Q 203.939 69.989 205.423 69.989 Q 206.907 69.989 207.659 71.088 Q 208.411 72.186 208.411 73.778 L 208.411 74.091 Q 208.411 75.682 207.659 76.781 Q 206.907 77.88 205.423 77.88 Q 203.939 77.88 203.187 76.781 Q 202.435 75.682 202.435 74.091 Z M 216.309 74.091 Q 216.309 76.337 217.481 77.801 Q 218.653 79.266 220.606 79.266 Q 221.68 79.266 222.486 78.817 Q 223.292 78.368 223.682 77.733 L 223.741 77.733 L 223.819 79.071 L 225.46 79.071 L 225.46 64.071 L 223.643 64.071 L 223.643 70.008 Q 223.194 69.374 222.437 68.988 Q 221.68 68.602 220.606 68.602 Q 218.653 68.602 217.481 70.067 Q 216.309 71.532 216.309 73.778 Z M 218.165 74.091 L 218.165 73.778 Q 218.165 72.216 218.848 71.151 Q 219.532 70.087 220.997 70.087 Q 221.973 70.087 222.657 70.624 Q 223.341 71.161 223.643 71.844 L 223.643 76.024 Q 223.341 76.708 222.657 77.245 Q 221.973 77.782 220.997 77.782 Q 219.532 77.782 218.848 76.717 Q 218.165 75.653 218.165 74.091 Z M 227.48 76.044 Q 227.48 77.606 228.505 78.436 Q 229.531 79.266 230.995 79.266 Q 232.265 79.266 233.071 78.778 Q 233.876 78.29 234.238 77.655 Q 234.267 78.046 234.379 78.436 Q 234.492 78.827 234.628 79.071 L 236.386 79.071 L 236.386 78.915 Q 236.21 78.485 236.113 77.924 Q 236.015 77.362 236.015 76.727 L 236.015 72.04 Q 236.015 70.282 234.994 69.393 Q 233.974 68.505 232.118 68.505 Q 230.263 68.505 229.174 69.418 Q 228.085 70.331 228.085 71.551 L 228.085 71.6 L 229.892 71.6 L 229.892 71.551 Q 229.892 70.917 230.395 70.433 Q 230.898 69.95 232.07 69.95 Q 233.242 69.95 233.72 70.531 Q 234.199 71.112 234.199 72.04 L 234.199 72.743 L 231.874 72.743 Q 229.96 72.743 228.72 73.612 Q 227.48 74.481 227.48 76.044 Z M 229.296 75.946 Q 229.296 75.067 229.999 74.55 Q 230.702 74.032 232.07 74.032 L 234.199 74.032 L 234.199 75.507 Q 234.199 76.337 233.329 77.079 Q 232.46 77.821 231.386 77.821 Q 230.312 77.821 229.804 77.323 Q 229.296 76.825 229.296 75.946 Z M 243.327 79.071 L 245.143 79.071 L 245.143 68.798 L 243.327 68.798 Z M 243.102 65.692 Q 243.102 66.151 243.395 66.464 Q 243.688 66.776 244.235 66.776 Q 244.782 66.776 245.075 66.464 Q 245.368 66.151 245.368 65.692 Q 245.368 65.233 245.075 64.921 Q 244.782 64.608 244.235 64.608 Q 243.688 64.608 243.395 64.921 Q 243.102 65.233 243.102 65.692 Z M 247.938 79.071 L 249.754 79.071 L 249.754 71.805 Q 250.125 71.063 250.789 70.594 Q 251.454 70.126 252.323 70.126 Q 253.338 70.126 253.89 70.658 Q 254.442 71.19 254.442 72.421 L 254.442 79.071 L 256.258 79.071 L 256.258 72.44 Q 256.258 70.37 255.335 69.486 Q 254.413 68.602 252.86 68.602 Q 251.883 68.602 251.078 69.008 Q 250.272 69.413 249.715 70.116 L 249.657 70.116 L 249.579 68.798 L 247.938 68.798 Z M 258.083 76.044 L 258.083 76.092 Q 258.083 77.577 259.158 78.47 Q 260.232 79.364 262.283 79.364 Q 264.333 79.364 265.359 78.485 Q 266.384 77.606 266.384 76.239 Q 266.384 74.872 265.481 74.139 Q 264.577 73.407 262.917 73.016 Q 261.257 72.626 260.691 72.284 Q 260.124 71.942 260.124 71.356 Q 260.124 70.77 260.617 70.38 Q 261.111 69.989 262.185 69.989 Q 263.259 69.989 263.772 70.409 Q 264.284 70.829 264.284 71.561 L 264.284 71.649 L 266.091 71.649 L 266.091 71.6 Q 266.091 70.175 265.017 69.34 Q 263.943 68.505 262.185 68.505 Q 260.427 68.505 259.377 69.344 Q 258.327 70.184 258.327 71.454 Q 258.327 72.723 259.304 73.431 Q 260.281 74.139 261.941 74.53 Q 263.601 74.921 264.099 75.287 Q 264.597 75.653 264.597 76.337 Q 264.597 77.02 263.977 77.45 Q 263.357 77.88 262.283 77.88 Q 261.208 77.88 260.554 77.43 Q 259.9 76.981 259.9 76.092 L 259.9 76.044 Z M 267.768 74.091 Q 267.768 76.415 269.032 77.889 Q 270.297 79.364 272.514 79.364 Q 274.565 79.364 275.629 78.256 Q 276.694 77.147 276.694 75.78 L 276.694 75.731 L 274.936 75.731 L 274.936 75.78 Q 274.936 76.61 274.36 77.245 Q 273.783 77.88 272.514 77.88 Q 271.029 77.88 270.326 76.781 Q 269.623 75.682 269.623 74.091 L 269.623 73.778 Q 269.623 72.186 270.326 71.088 Q 271.029 69.989 272.514 69.989 Q 273.783 69.989 274.36 70.624 Q 274.936 71.258 274.936 72.089 L 274.936 72.137 L 276.694 72.137 L 276.694 72.089 Q 276.694 70.721 275.629 69.613 Q 274.565 68.505 272.514 68.505 Q 270.297 68.505 269.032 69.979 Q 267.768 71.454 267.768 73.778 Z M 278.528 79.071 L 280.345 79.071 L 280.345 71.844 Q 280.638 71.161 281.253 70.702 Q 281.868 70.243 282.747 70.243 Q 283.001 70.243 283.216 70.262 Q 283.431 70.282 283.626 70.321 L 283.626 68.641 Q 283.528 68.602 283.294 68.553 Q 283.06 68.505 282.845 68.505 Q 281.966 68.505 281.331 68.988 Q 280.696 69.471 280.306 70.116 L 280.247 70.116 L 280.169 68.798 L 278.528 68.798 Z M 285.248 79.071 L 287.065 79.071 L 287.065 68.798 L 285.248 68.798 Z M 285.024 65.692 Q 285.024 66.151 285.317 66.464 Q 285.61 66.776 286.156 66.776 Q 286.703 66.776 286.996 66.464 Q 287.289 66.151 287.289 65.692 Q 287.289 65.233 286.996 64.921 Q 286.703 64.608 286.156 64.608 Q 285.61 64.608 285.317 64.921 Q 285.024 65.233 285.024 65.692 Z M 289.24 74.091 Q 289.24 76.415 290.505 77.889 Q 291.77 79.364 293.986 79.364 Q 296.037 79.364 297.102 78.256 Q 298.166 77.147 298.166 75.78 L 298.166 75.731 L 296.408 75.731 L 296.408 75.78 Q 296.408 76.61 295.832 77.245 Q 295.256 77.88 293.986 77.88 Q 292.502 77.88 291.799 76.781 Q 291.096 75.682 291.096 74.091 L 291.096 73.778 Q 291.096 72.186 291.799 71.088 Q 292.502 69.989 293.986 69.989 Q 295.256 69.989 295.832 70.624 Q 296.408 71.258 296.408 72.089 L 296.408 72.137 L 298.166 72.137 L 298.166 72.089 Q 298.166 70.721 297.102 69.613 Q 296.037 68.505 293.986 68.505 Q 291.77 68.505 290.505 69.979 Q 289.24 71.454 289.24 73.778 Z M 293.283 78.876 L 292.883 80.604 Q 293.703 80.673 293.991 80.853 Q 294.279 81.034 294.279 81.512 Q 294.279 82.03 293.894 82.259 Q 293.508 82.489 292.317 82.489 L 292.385 83.534 Q 294.358 83.534 295.207 82.967 Q 296.057 82.401 296.057 81.493 Q 296.057 80.643 295.442 80.272 Q 294.826 79.901 294.27 79.803 L 294.543 78.876 Z M 299.435 76.044 Q 299.435 77.606 300.46 78.436 Q 301.485 79.266 302.95 79.266 Q 304.22 79.266 305.025 78.778 Q 305.831 78.29 306.192 77.655 Q 306.222 78.046 306.334 78.436 Q 306.446 78.827 306.583 79.071 L 308.341 79.071 L 308.341 78.915 Q 308.165 78.485 308.067 77.924 Q 307.97 77.362 307.97 76.727 L 307.97 72.04 Q 307.97 70.282 306.949 69.393 Q 305.929 68.505 304.073 68.505 Q 302.218 68.505 301.129 69.418 Q 300.04 70.331 300.04 71.551 L 300.04 71.6 L 301.847 71.6 L 301.847 71.551 Q 301.847 70.917 302.35 70.433 Q 302.853 69.95 304.025 69.95 Q 305.196 69.95 305.675 70.531 Q 306.153 71.112 306.153 72.04 L 306.153 72.743 L 303.829 72.743 Q 301.915 72.743 300.675 73.612 Q 299.435 74.481 299.435 76.044 Z M 301.251 75.946 Q 301.251 75.067 301.954 74.55 Q 302.657 74.032 304.025 74.032 L 306.153 74.032 L 306.153 75.507 Q 306.153 76.337 305.284 77.079 Q 304.415 77.821 303.341 77.821 Q 302.267 77.821 301.759 77.323 Q 301.251 76.825 301.251 75.946 Z M 300.48 66.122 L 301.222 67.02 Q 301.398 66.757 301.793 66.405 Q 302.189 66.053 302.648 66.053 Q 302.931 66.053 303.263 66.219 Q 303.595 66.385 303.927 66.571 Q 304.23 66.737 304.689 66.947 Q 305.148 67.157 305.626 67.157 Q 306.183 67.157 306.832 66.805 Q 307.482 66.454 307.853 65.76 L 307.062 64.803 Q 306.837 65.155 306.495 65.414 Q 306.153 65.673 305.763 65.673 Q 305.392 65.673 305.011 65.458 Q 304.63 65.243 304.298 65.028 Q 303.937 64.794 303.57 64.672 Q 303.204 64.55 302.804 64.55 Q 302.15 64.55 301.476 65.028 Q 300.802 65.507 300.48 66.122 Z M 309.895 74.091 Q 309.895 76.415 311.213 77.889 Q 312.532 79.364 314.739 79.364 Q 316.946 79.364 318.264 77.889 Q 319.582 76.415 319.582 74.091 L 319.582 73.778 Q 319.582 71.454 318.264 69.979 Q 316.946 68.505 314.739 68.505 Q 312.532 68.505 311.213 69.979 Q 309.895 71.454 309.895 73.778 Z M 311.75 73.778 Q 311.75 72.186 312.502 71.088 Q 313.254 69.989 314.739 69.989 Q 316.223 69.989 316.975 71.088 Q 317.727 72.186 317.727 73.778 L 317.727 74.091 Q 317.727 75.682 316.975 76.781 Q 316.223 77.88 314.739 77.88 Q 313.254 77.88 312.502 76.781 Q 311.75 75.682 311.75 74.091 Z M 321.5 78.065 Q 321.5 78.573 321.827 78.929 Q 322.154 79.286 322.77 79.286 Q 323.385 79.286 323.712 78.929 Q 324.039 78.573 324.039 78.065 Q 324.039 77.557 323.712 77.201 Q 323.385 76.844 322.77 76.844 Q 322.154 76.844 321.827 77.201 Q 321.5 77.557 321.5 78.065 Z" style="fill: rgb(84, 85, 103); text-wrap-mode: nowrap;"/>
</svg>